# xmcd
#
# Track frame offsets:
#	182
#	11725
#	21587
#	31352
#	43035
#	55735
#	68515
#	82780
#	96565
#	108840
#	121657
#	134257
#
# Disc length: 1954
#
# Revision: 7
# Processed by: cddbd v1.5.1PL0 Copyright (c) Steve Scherf et al.
# Submitted via: Grip 3.1.4
# Normalized: r6:TDELIM( - ),TSWAP
#
DISCID=9407a00c
DTITLE=Various Artist - The Blues Vol. 1
DYEAR=1990
DGENRE=Blues
TTITLE0=Sonny Boy Williamson - Don't Start Me To Talkin'
TTITLE1=Buddy Guy - First Time I Met The Blues
TTITLE2=Chuck Berry - Worried Life Blues
TTITLE3=Little Walter - My Babe
TTITLE4=John Lee Hooker - Walkin' The Boogie
TTITLE5=Muddy Waters - Hoochie Coochie Man
TTITLE6=Lowell Fulson - Reconsider Baby
TTITLE7=Howlin' Wolf - Smokestack Lightning
TTITLE8=Little Walter - Juke
TTITLE9=Jimmy Witherspoon - When The Lights Go Out
TTITLE10=Muddy Waters - Just Make Love To Me
TTITLE11=Howlin' Wolf - Spoonful
EXTD=
EXTT0=
EXTT1=
EXTT2=
EXTT3=
EXTT4=
EXTT5=
EXTT6=
EXTT7=
EXTT8=
EXTT9=
EXTT10=
EXTT11=
PLAYORDER=
